<svg xmlns="http://www.w3.org/2000/svg" width="16" height="14" viewBox="0 0 16 14">
    <path fill="#FE6E71" d="M14.379 14c.234.023.434-.035.598-.176.164-.14.257-.328.28-.562l.493-9.246c.023-.211-.041-.399-.193-.563-.153-.164-.346-.258-.58-.281l-2.918-.14-.176-1.9c-.024-.187-.112-.345-.264-.474-.152-.129-.334-.181-.545-.158L.668 1.344c-.211.023-.38.111-.51.263-.129.153-.181.323-.158.51l.738 8.297c.024.188.112.346.264.475.152.129.334.181.545.158l.527-.035-.07 1.617c-.024.234.04.422.193.562.153.141.346.223.58.246L14.38 14zM1.617 8.973l-.562-6.258V2.68c0-.211.117-.317.351-.317l9.176-.773c.188 0 .305.094.352.281v.035h.035l.07 1.09-7.7-.387c-.234 0-.427.077-.58.229-.152.152-.24.334-.263.545l-.246 4.71-.633.88zm12.621 2.707l-1.652-1.934-.95-1.16c-.07-.117-.198-.176-.386-.176-.14 0-.27.047-.387.14l-.597.423c-.141.07-.246.105-.317.105-.14 0-.258-.047-.351-.14l-.106-.106L7.98 7.109c-.117-.164-.28-.246-.492-.246-.187 0-.351.07-.492.211L3.41 10.906l-.21.246v-.246l.245-4.5.106-2.215v-.035c.047-.21.187-.316.422-.316l7.172.316 1.02.07 2.038.106c.258 0 .387.117.387.352v.035l-.352 6.96zm-2.25-4.22c.328 0 .616-.122.862-.368s.369-.533.369-.862c0-.328-.117-.615-.352-.86-.234-.247-.527-.37-.879-.37-.328 0-.615.117-.861.352-.246.234-.37.527-.37.878 0 .352.118.645.352.88.235.234.528.35.88.35z"/>
</svg>
