<?xml version="1.0" encoding="UTF-8"?>
<svg width="217px" height="137px" viewBox="0 0 217 137" version="1.1" xmlns="http://www.w3.org/2000/svg">
  <!-- Generator: Sketch 60.1 (88133) - https://sketch.com -->
  <title>Fill 2</title>
  <desc>Created with Sketch.</desc>
  <g id="Page-1" stroke="none" stroke-width="1" fill="none" fill-rule="evenodd">
    <g id="Login-Screen" transform="translate(-383.000000, -798.000000)" fill="#F7DADA">
      <path
        d="M631.921949,936.946015 C631.044851,925.596088 630.167754,914.243003 629.290657,902.893077 C627.786609,896.489299 620.970898,891.364697 625.392798,883.392744 C626.71636,881.006527 622.97524,878.819293 620.568763,879.270953 C609.674708,881.323952 630.140839,815.460582 622.191552,809.110498 C620.981981,808.140851 542.926655,821.218455 541.337114,821.875415 L541.332364,821.88489 C526.822262,825.220224 513.035686,831.458183 497.992043,832.661556 C499.233278,832.683666 500.491928,832.582595 501.709415,832.764206 C502.920569,832.945818 504.592437,832.009334 505.322296,833.770176 C442.673168,862.786949 399.410424,908.992063 375.921949,975.059154 C383.594175,973.100909 387.083566,967.981045 391.787277,964.640973 C413.668796,949.104507 438.408006,940.387157 464.371035,935.286244 C476.048778,932.993202 486.30955,929.626284 493.801291,920.035619 C494.026106,919.745041 494.871539,919.936128 495.427245,919.904543 C495.67106,929.447831 495.70114,928.966165 505.77826,929.575748 C516.229017,930.20744 526.350466,927.154788 536.723646,927.658563 C542.807914,928.242878 572.212838,929.809474 577.719236,930.621199 C595.70448,933.275884 613.841712,934.915125 631.921949,936.946015"
        id="Fill-2"
        transform="translate(503.921949, 892.059154) rotate(-289.000000) translate(-503.921949, -892.059154) "></path>
    </g>
  </g>
</svg>
