<?xml version="1.0" encoding="UTF-8"?>
<svg width="120px" height="39px" viewBox="0 0 120 39" version="1.1" xmlns="http://www.w3.org/2000/svg"
     xmlns:xlink="http://www.w3.org/1999/xlink">
  <!-- Generator: Sketch 60.1 (88133) - https://sketch.com -->
  <title>Group 18</title>
  <desc>Created with Sketch.</desc>
  <defs>
    <polygon id="path-1" points="0 0.0550931099 32.3612746 0.0550931099 32.3612746 32.8851438 0 32.8851438"></polygon>
    <polygon id="path-3"
             points="0.0515212213 0.0704495299 27.805202 0.0704495299 27.805202 27.0844935 0.0515212213 27.0844935"></polygon>
    <polygon id="path-5"
             points="0.00316981132 0.082224429 10.5434957 0.082224429 10.5434957 7.44589281 0.00316981132 7.44589281"></polygon>
  </defs>
  <g id="Page-1" stroke="none" stroke-width="1" fill="none" fill-rule="evenodd">
    <g id="Login-Screen" transform="translate(-111.000000, -108.000000)">
      <g id="Group-18" transform="translate(111.000000, 108.000000)">
        <g id="Group-3" transform="translate(0.000000, 5.283019)">
          <mask id="mask-2" fill="white">
            <use xlink:href="#path-1"></use>
          </mask>
          <g id="Clip-2"></g>
          <path
            d="M20.9522153,6.6983384 C18.1798164,6.32049757 15.8121234,6.88252227 13.761459,8.59877492 C11.2872716,10.669321 10.0010214,13.3617076 9.7040371,16.5155688 C9.48218519,18.8717961 9.61799619,21.1987922 10.7631175,23.3633925 C12.3627148,26.3867958 15.6246333,27.3599525 18.4773461,25.5953871 C20.1159413,24.5817668 21.1538865,23.0752753 21.7837168,21.2675397 C21.9886605,20.6793964 21.9349361,20.2508069 21.5415478,19.733847 C19.9460412,17.6374529 19.1423564,15.2708052 19.2204887,12.6180703 C19.2819854,10.5327732 19.7086447,8.55979994 20.9522153,6.6983384 M22.2285115,5.39984888 C23.4491743,4.5423992 24.6451565,4.03829566 26.0181294,4.10934381 C28.6239007,4.2441323 30.2680866,5.74142132 31.3563472,7.93728281 C32.132079,9.50264272 32.3366136,11.2059037 32.3588397,12.934742 C32.4110642,16.9973429 31.6275602,20.861821 29.5849409,24.4228896 C27.4577806,28.131603 24.3138104,30.6498201 20.2591156,31.9879613 C16.3755481,33.2693993 12.4443923,33.1844121 8.64986555,31.6926716 C3.84766482,29.8049561 1.0201779,26.2099197 0.262308863,21.1415477 C-0.389611226,16.7820332 0.142451562,12.5326772 2.20797875,8.58659524 C4.76997971,3.692122 8.89217092,0.920838158 14.3963345,0.232144756 C15.739309,0.0642004618 17.1154181,0.0154817302 18.4668467,0.0870711997 C21.4061459,0.242971141 22.3598227,1.86963546 22.3062347,4.58651672 C22.3017349,4.80926959 22.2646459,5.0313458 22.2285115,5.39984888"
            id="Fill-1" fill="#FE6E71" mask="url(#mask-2)"></path>
        </g>
        <g id="Group-6" transform="translate(92.075472, 10.566038)">
          <mask id="mask-4" fill="white">
            <use xlink:href="#path-3"></use>
          </mask>
          <g id="Clip-5"></g>
          <path
            d="M18.7731019,4.19487164 C17.9564797,4.42146519 17.2873808,4.60134808 16.6216873,4.79260749 C9.79557036,6.75378604 7.79208762,13.6865047 9.5417977,18.5812198 C10.6111028,21.572442 13.341713,22.6552193 16.190696,21.1836327 C18.2989298,20.0948326 19.1790292,18.1348586 19.9075188,16.0782511 C15.4639772,13.3699697 15.3920545,6.94705307 18.7731019,4.19487164 M19.9968773,3.62377024 C20.3556734,3.56153397 20.7297259,3.47855228 21.1084098,3.43358156 C24.2457646,3.06069932 26.9089473,5.28086105 27.4954986,8.31170034 C28.2573614,12.2482446 27.6089675,16.0211008 25.6016707,19.4809019 C22.4561428,24.9030862 17.5223555,27.2992494 11.2720287,27.0694436 C8.1544254,26.9547415 5.32110741,25.9507969 3.07188882,23.6795078 C0.82539457,21.4107616 0.0217130235,18.6215061 0.052361896,15.5537266 C0.0815123792,12.6358494 0.666292867,9.83816191 2.2637121,7.32448592 C4.89529241,3.18329808 8.73580046,0.888854354 13.6257259,0.237046566 C15.3904199,0.00188716423 17.1568847,-0.0112292964 18.9031893,0.373029464 C19.1267218,0.422283112 19.4243564,0.666811414 19.473667,0.870785761 C19.6868469,1.75387155 19.8207485,2.6555613 19.9968773,3.62377024"
            id="Fill-4" fill="#FE6E71" mask="url(#mask-4)"></path>
        </g>
        <path
          d="M45.3897643,35.7085002 C43.8107394,36.8748885 42.1311152,37.8499949 39.9978348,37.7250296 C37.3621062,37.5706052 35.8329698,36.1195811 35.5417253,33.5300137 C35.3127043,31.4914237 35.6883754,29.5046224 36.0493816,27.5281788 C36.6927236,24.0057429 37.4500963,20.5036189 38.1277024,16.9871017 C38.1874589,16.6771768 38.0964536,16.2732253 37.9291079,15.9988126 C37.3214005,15.0019146 36.6516067,14.0417394 35.9156147,12.932655 C37.5809851,12.3144195 39.1744009,11.6612098 40.8112636,11.1394222 C41.7535252,10.8389135 42.759381,10.666733 43.748927,10.5901934 C44.8727882,10.5034306 45.5772573,11.1415745 45.8284813,12.2224105 C46.1792083,13.7310074 45.6892322,15.1523035 45.3563226,16.5851679 C45.1489565,17.4780851 44.8509962,18.3505558 44.6255387,19.2399756 C44.5779802,19.4281635 44.6692597,19.6503839 44.6965339,19.856866 C44.7778082,19.8567315 44.8589455,19.856597 44.9402199,19.856597 C45.1966521,19.1982757 45.4462315,18.5373986 45.7110241,17.8824402 C46.4201531,16.1286206 47.2472875,14.4342571 48.4757226,12.9652079 C49.661122,11.5476783 51.0612886,10.5131157 53.0647767,10.5681328 C55.7912365,10.6430582 57.7113944,12.8795212 57.3039262,15.5397095 C56.9046814,18.1464951 54.9310715,19.958022 52.0069766,20.3770394 C51.3992693,20.4642057 50.7826532,20.5197608 50.1689154,20.5320018 C48.3836208,20.567783 47.0902211,21.3802597 46.2134723,22.8760776 C45.3542668,24.3418984 44.9403569,25.9581081 44.8319454,27.613193 C44.7035237,29.5713423 44.7022902,31.5428088 44.7643767,33.5048592 C44.7868539,34.2124133 45.1521088,34.9094752 45.3897643,35.7085002"
          id="Fill-7" fill="#FE6E71"></path>
        <path
          d="M76.562697,13.7872789 C79.3609141,12.2397961 82.0471704,10.5590604 85.3397806,10.5660377 C87.5431475,10.5707705 88.5925291,11.7806794 88.2323016,14.0851461 C87.7767001,17.0002877 87.0229378,19.8675121 86.4207306,22.7603103 C85.7909679,25.7855538 85.0808128,28.8017791 85.131777,31.9240683 C85.1538481,33.2746331 85.4217782,34.549284 86.4092268,35.6389962 C85.0293135,36.8552313 83.509215,37.6538062 81.6730314,37.7254128 C81.1409167,37.7460064 80.5971645,37.7422377 80.0734769,37.6573058 C77.7598882,37.2821788 76.5708566,35.9355175 76.2950344,33.5438307 C76.072183,31.6128758 76.4325442,29.739933 76.7970522,27.8758737 C77.4372485,24.6026992 78.153423,21.3444652 78.8578262,18.0842121 C78.9549392,17.6349212 78.9025035,17.2898098 78.6322995,16.9062031 C77.9373935,15.9193245 77.2931843,14.8962387 76.562697,13.7872789"
          id="Fill-9" fill="#FE6E71"></path>
        <path
          d="M59.1905498,13.7914567 C61.9241744,12.2721996 64.5324845,10.6951249 67.683021,10.5710189 C70.2223813,10.470981 71.2988012,11.8822672 70.8405195,14.3986755 C70.2717842,17.5216302 69.4995466,20.6068018 68.852088,23.7160417 C68.300222,26.3662371 67.7342982,29.0200628 67.7600038,31.7491859 C67.7732582,33.1618167 68.0114362,34.5166299 69.0495656,35.6205418 C66.9168082,37.5187056 64.5083856,38.1938264 61.7797146,37.4237772 C60.0309339,36.9301767 59.0047201,35.3185459 58.888108,33.1825234 C58.7543588,30.7337483 59.3118479,28.3730441 59.7782965,26.0057513 C60.3100801,23.3070161 60.9394644,20.6277775 61.4972213,17.9338828 C61.5527828,17.6657707 61.4832975,17.3063606 61.338436,17.0729391 C60.6676818,15.9922886 59.9496669,14.9410848 59.1905498,13.7914567"
          id="Fill-11" fill="#FE6E71"></path>
        <g id="Group-15" transform="translate(61.886792, 0.000000)">
          <mask id="mask-6" fill="white">
            <use xlink:href="#path-5"></use>
          </mask>
          <g id="Clip-14"></g>
          <path
            d="M0.00316981132,4.32199934 C0.0295849057,2.56695134 1.05272956,1.59190996 2.46600484,0.905117511 C4.41950266,-0.0441046011 6.4453372,-0.192664681 8.48431156,0.566554121 C10.7045341,1.39316783 11.2329715,3.99853029 9.55988002,5.64010593 C7.64566618,7.51855677 3.85489695,8.02421715 1.51086212,6.71630586 C0.52889792,6.168143 0.0129230769,5.35291625 0.00316981132,4.32199934"
            id="Fill-13" fill="#FE6E71" mask="url(#mask-6)"></path>
        </g>
        <path
          d="M85.1574981,0 C86.3086623,0.0495195107 87.5039137,0.159577984 88.5270348,0.893527874 C90.1294119,2.04322398 90.2492908,4.34533706 88.7912855,5.74412719 C86.9313252,7.52819 83.448577,8.06841521 81.1080124,7.00279344 C78.5191175,5.82412025 78.9870671,2.89471469 80.3515914,1.72039487 C81.5239828,0.711366816 83.3816299,0.00448940619 85.1574981,0"
          id="Fill-16" fill="#FE6E71"></path>
      </g>
    </g>
  </g>
</svg>
