<svg xmlns="http://www.w3.org/2000/svg" width="1192" height="935" viewBox="0 0 1192 935">
  <g fill="none" fill-rule="evenodd">
    <path fill="#F1F1F1" d="M0 1066L1508 1066 1508 0 0 0z" transform="translate(0 -31)"/>
    <g>
      <path fill="#FDB8B8"
            d="M664.32 44.596h141.343c-4.459-15.536-21.09-30.4-33.453-24.159-13.203 6.666-23.203 4.526-33.583-9.528-9.553-12.935-26.903-16.015-35.954 6.549-7.573 18.873-21.442 19.959-34.4 23.857-.92.276-1.845.53-2.753.864-.159.058-.25.471-1.2 2.417"
            transform="translate(0 -31) translate(407 177)"/>
      <path fill="#FFF"
            d="M511.284 281.884s-.006.083-.032.234c-.19 1.119-.567 5.557-5.307 7.389 0 0 4.795 2.104 5.34 7.622 0 0 .826-6.8 4.942-7.622 0 0-5.487-2.185-4.943-7.623M143.156 226.917s-.005.083-.031.235c-.19 1.118-.568 5.556-5.307 7.388 0 0 4.794 2.104 5.338 7.623 0 0 .828-6.8 4.943-7.623 0 0-5.487-2.185-4.943-7.623M542.67 13.222s-.011.159-.057.449c-.345 2.143-1.03 10.648-9.62 14.158 0 0 8.691 4.031 9.677 14.606 0 0 1.5-13.03 8.959-14.606 0 0-9.945-4.185-8.96-14.607M12.761 621.341s-.014.188-.072.533c-.431 2.538-1.289 12.616-12.05 16.774 0 0 10.887 4.776 12.122 17.306 0 0 1.88-15.438 11.222-17.306 0 0-12.457-4.96-11.222-17.307"
            transform="translate(0 -31) translate(407 177)"/>
    </g>
  </g>
</svg>
